<?xml version="1.0" encoding="UTF-8" standalone="no"?>
<svg
   xmlns:dc="http://purl.org/dc/elements/1.1/"
   xmlns:cc="http://creativecommons.org/ns#"
   xmlns:rdf="http://www.w3.org/1999/02/22-rdf-syntax-ns#"
   xmlns:svg="http://www.w3.org/2000/svg"
   xmlns="http://www.w3.org/2000/svg"
   viewBox="0 0 595 926"
   height="926"
   width="595"
   id="svg869"
   version="1.1">
  <metadata
     id="metadata875">
    <rdf:RDF>
      <cc:Work
         rdf:about="">
        <dc:format>image/svg+xml</dc:format>
        <dc:type
           rdf:resource="http://purl.org/dc/dcmitype/StillImage" />
        <dc:title></dc:title>
      </cc:Work>
    </rdf:RDF>
  </metadata>
  <defs
     id="defs873" />
  <path
     id="path879"
     d="m 206.26405,925.42694 c 0,-0.417 203.54859,-297.66372 218.34896,-318.86011 1.98117,-2.83733 1.98442,-2.90558 0.0996,-2.08887 -7.423,3.21637 -34.93607,11.83814 -44.44856,13.92883 -76.76112,16.87085 -157.13539,5.17636 -222.58534,-32.38625 C 81.690935,542.41012 27.812915,467.29875 9.8954148,379.99578 4.6991948,354.67724 3.8083078,344.73231 3.8489998,312.5 3.8900398,279.99158 5.0887328,267.93169 10.828755,242.27753 24.666215,180.43313 57.818205,123.14901 103.7506,81.715623 176.16107,16.397653 274.90204,-11.750977 374.26405,4.5988833 465.19477,19.561393 545.31219,73.824163 592.10261,152.13888 l 5.16144,8.63887 v 155.27496 155.27495 l -5.40483,9.67634 c -8.96493,16.05005 -9.22971,16.44496 -157.09517,234.30445 l -143,210.69089 -42.75,3e-4 c -23.5125,2e-4 -42.75,-0.2575 -42.75,-0.5727 z M 338.67453,557.48629 c 20.15663,-1.05334 48.16727,-7.36749 68.86629,-15.52382 C 490.5188,509.26549 548.1614,436.48239 561.94678,347 c 2.46945,-16.02944 2.47105,-51.95235 0.003,-68 -8.43601,-54.85333 -32.10497,-102.24452 -70.18573,-140.5295 -38.7271,-38.934777 -87.72013,-63.032497 -143.5,-70.581937 -14.11629,-1.91055 -46.90936,-1.62514 -61.5,0.53526 -92.48643,13.69418 -168.92235,77.287837 -199.378975,165.880627 -9.15149,26.61998 -12.5754,48.0465 -12.5754,78.69555 0,30.90516 3.07875,50.06748 12.68744,78.96733 5.03152,15.13319 18.157065,41.84583 27.286585,55.53267 38.17485,57.23115 97.83153,96.30835 164.16992,107.537 13.14711,2.22532 34.92632,3.88051 43.81043,3.32954 2.75,-0.17055 9.90971,-0.56667 15.91048,-0.88025 z"
     style="fill:#000000" />
</svg>
